<svg xmlns="http://www.w3.org/2000/svg" width="1940" height="478.388" viewBox="0 0 1940 478.388">
  <g id="Formas" transform="translate(3.97 -100.379)">
    <path id="Formas-2" data-name="Formas" d="M167.874,409.873c148.495,37.987,217.562-69.067,290.082-141.588C601.547,124.695,632.939,147.487,603,164.685c-162.308,93.241-86.852,199.259,3.453,155.4,120.868-58.707,162.308,0,100.148,0-93.241,0-75.974,100.148-3.453,72.521,131.849-50.212,79.427,75.974,269.362,24.174,76.008-20.72,115.239-6.734,130.364-2.452,50.661,14.331,79.773,11.81,114.824-14.815,155.4-131.228,283.176,158.855,461.2,33.947,87.888-78.84,133.162-12.4,156.955-33.947,18.717-16.956-30.459-76.492-51.8-93.241-27.8-21.825-60.917-37.331-62.161-44.894-2.141-12.777,22.067-12.225,65.614,27.627,14.5,13.3,25.555,33.532,50.626,57.5,38.574,36.882,69.585,21.618,73.695-5.7,8.219-54.736-37.5-155.954-54.6-196.565-24.83-58.983,9.7-48.623,16.162-25.831,18.3,61.85,36.744,122.18,59.5,140.379a8.772,8.772,0,0,1,3.142,6.665V570.064a8.71,8.71,0,0,1-8.7,8.7H4.732a8.71,8.71,0,0,1-8.7-8.7V350.372a8.686,8.686,0,0,1,9.7-8.633C50.42,367.121,118.077,393.884,167.874,409.873Z" transform="translate(0 0)" fill="#fee5d8"/>
    <circle id="Formas-3" data-name="Formas" cx="20.72" cy="20.72" r="20.72" transform="translate(1713.887 309.366)" fill="#fee5d8"/>
    <circle id="Formas-4" data-name="Formas" cx="10.36" cy="10.36" r="10.36" transform="translate(1780.594 251.379)" fill="#fee5d8"/>
    <circle id="Formas-5" data-name="Formas" cx="10.36" cy="10.36" r="10.36" transform="translate(1811.675 271.739)" fill="#fee5d8"/>
    <circle id="Formas-6" data-name="Formas" cx="18.993" cy="18.993" r="18.993" transform="translate(1842.755 299.366)" fill="#fee5d8"/>
    <circle id="Formas-7" data-name="Formas" cx="20.72" cy="20.72" r="20.72" transform="translate(236.887 350.806)" fill="#fee5d8"/>
  </g>
</svg>
