<svg xmlns="http://www.w3.org/2000/svg" width="1940" height="398.388" viewBox="0 0 1940 398.388">
  <g id="Formas" transform="translate(0 0)">
    <path id="Formas-2" data-name="Formas" d="M1764.186,409.873c-148.495,37.987-217.562-69.067-290.082-141.588-143.591-143.591-174.982-120.8-145.041-103.6,162.308,93.241,86.852,199.259-3.453,155.4-120.868-58.707-162.308,0-100.147,0,93.241,0,75.974,100.148,3.453,72.521-131.849-50.212-79.427,75.974-269.362,24.174-76.008-20.72-115.239-6.734-130.364-2.452-50.661,14.331-79.773,11.81-114.824-14.815-155.4-131.228-283.176,158.855-461.2,33.947-87.888-78.84-133.162-12.4-156.955-33.947-18.717-16.956,30.459-76.492,51.8-93.241,27.8-21.825,60.917-37.331,62.161-44.894,2.141-12.777-22.067-12.225-65.614,27.627-14.5,13.3-25.555,33.532-50.626,57.5-38.574,36.882-69.585,21.618-73.695-5.7-8.219-54.736,37.5-155.954,54.6-196.565,24.83-58.983-9.7-48.623-16.162-25.831-18.3,61.85-36.744,122.18-59.5,140.379a8.772,8.772,0,0,0-3.142,6.665V490.064a8.71,8.71,0,0,0,8.7,8.7h1922.6a8.71,8.71,0,0,0,8.7-8.7V350.372a8.686,8.686,0,0,0-9.7-8.633C1881.64,367.121,1813.983,393.884,1764.186,409.873Z" transform="translate(3.97 -100.379)" fill="#fee5d8"/>
    <ellipse id="Formas-3" data-name="Formas" cx="20.72" cy="20.72" rx="20.72" ry="20.72" transform="translate(180.702 208.987)" fill="#fee5d8"/>
    <ellipse id="Formas-4" data-name="Formas" cx="10.36" cy="10.36" rx="10.36" ry="10.36" transform="translate(134.715 151)" fill="#fee5d8"/>
    <ellipse id="Formas-5" data-name="Formas" cx="10.36" cy="10.36" rx="10.36" ry="10.36" transform="translate(103.635 171.36)" fill="#fee5d8"/>
    <ellipse id="Formas-6" data-name="Formas" cx="18.993" cy="18.993" rx="18.993" ry="18.993" transform="translate(55.288 198.987)" fill="#fee5d8"/>
  </g>
</svg>
