<svg xmlns="http://www.w3.org/2000/svg" width="110" height="100.992" viewBox="0 0 110 100.992">
  <g id="Icon_Aceitação" transform="translate(89.48 -121.019)">
    <path id="Aceitação" d="M111,35.388a31.855,31.855,0,0,0-9.768-23.012A33.989,33.989,0,0,0,55.67,11.21a33.813,33.813,0,0,0-45.341,1.452A31.173,31.173,0,0,0,1,35.256a34.121,34.121,0,0,0,9.878,24,9.394,9.394,0,0,0,2.42,9.9,10.054,10.054,0,0,0,7.04,2.816,10.318,10.318,0,0,0,1.144,0,8.8,8.8,0,0,0,2.838,7.964,10.076,10.076,0,0,0,7.04,2.816,10.317,10.317,0,0,0,1.144,0,8.8,8.8,0,0,0,2.838,7.964,10.054,10.054,0,0,0,7.04,2.816,10.294,10.294,0,0,0,1.144-.352,9.744,9.744,0,0,0,0,.99A10.076,10.076,0,0,0,60.4,101.365l6.6-6.6a9.68,9.68,0,0,0,1.87-2.618,10.1,10.1,0,0,0,9.57-2.486,8.8,8.8,0,0,0,2.838-7.92h.858a10.142,10.142,0,0,0,7.084-2.86,8.91,8.91,0,0,0,2.816-8.074,9.794,9.794,0,0,0,10.34-13.75A31.789,31.789,0,0,0,111,35.388Zm-94.6,30.6a5.236,5.236,0,0,1,0-7.524l6.6-6.6a5.742,5.742,0,0,1,7.942,0,5.236,5.236,0,0,1,0,7.524l-6.6,6.6a5.742,5.742,0,0,1-7.942,0Zm11,10.692a5.236,5.236,0,0,1,0-7.524l6.6-6.6a5.72,5.72,0,0,1,7.942,0,5.236,5.236,0,0,1,0,7.524l-6.6,6.6a5.742,5.742,0,0,1-7.942,0ZM46.342,87.373a5.742,5.742,0,0,1-7.942,0,5.236,5.236,0,0,1,0-7.524l6.6-6.6a5.742,5.742,0,0,1,7.942,0,5.236,5.236,0,0,1,0,7.524Zm17.82,4.4-6.6,6.6a5.742,5.742,0,0,1-7.942,0,5.566,5.566,0,0,1-1.672-3.96A5.1,5.1,0,0,1,49.4,90.541l6.6-6.6a5.918,5.918,0,0,1,8.074.132,5.236,5.236,0,0,1,.044,7.634ZM97.227,65.043a5.7,5.7,0,0,1-7.876,0,2.2,2.2,0,0,0-.77-.462L73.754,50.172A2.2,2.2,0,0,0,70.7,53.318l15.4,15a5.192,5.192,0,0,1,0,7.524,5.7,5.7,0,0,1-7.194.55c-.154-.176-.286-.374-.462-.55l-15.4-15a2.2,2.2,0,1,0-3.058,3.146L74.744,78.331a2.2,2.2,0,0,0,.462.66,5.526,5.526,0,0,0,.7.55,5.148,5.148,0,0,1,1.122,3.19,5.236,5.236,0,0,1-1.716,3.85,5.676,5.676,0,0,1-5.192,1.408h0a9.592,9.592,0,0,0-2.926-6.93,10.406,10.406,0,0,0-8.316-2.772A8.8,8.8,0,0,0,56,70.191a10.076,10.076,0,0,0-8.162-2.728A8.8,8.8,0,0,0,45,59.5a10.076,10.076,0,0,0-8.162-2.728A8.8,8.8,0,0,0,34,48.808a10.164,10.164,0,0,0-14.058,0l-6.6,6.6h0A29.721,29.721,0,0,1,5.4,35.256a26.818,26.818,0,0,1,8.008-19.448A29.435,29.435,0,0,1,52.436,14.2L39.016,27.4a9.306,9.306,0,0,0-.4,13.9,10.12,10.12,0,0,0,14.014,0L67,27.336l15.4,15.4h0L97.293,57.52a5.192,5.192,0,0,1-.066,7.524Zm2.42-11.462L85.48,39.59,68.54,22.782a2.2,2.2,0,0,0-.33-.22,2.2,2.2,0,0,0-.4-.264,2.2,2.2,0,0,0-.374,0,1.166,1.166,0,0,0-.836,0,2.2,2.2,0,0,0-.418,0,2.2,2.2,0,0,0-.352.22,2.068,2.068,0,0,0-.352.242L49.576,38.16a5.7,5.7,0,0,1-7.92,0,4.928,4.928,0,0,1-1.54-3.7A5.126,5.126,0,0,1,42.008,30.7l15.246-14.85h0a29.589,29.589,0,0,1,40.919-.33A27.543,27.543,0,0,1,99.647,53.582Z" transform="translate(-90.479 118.004)" fill="#ff153d"/>
  </g>
</svg>
