<svg xmlns="http://www.w3.org/2000/svg" width="84.172" height="108.844" viewBox="0 0 84.172 108.844">
  <g id="Icon_Save_Money" data-name="Icon_Save Money" transform="translate(-18.573 -5.256)">
    <path id="Save_Money" data-name="Save Money" d="M74.812,36.891l3.8,2.195,1.2-2.106-3.787-2.184Z" transform="translate(19.648 3.751)" fill="#ff2046" stroke="#ff2046" stroke-width="1.5"/>
    <rect id="Save_Money-2" data-name="Save Money" width="4.445" height="2.422" transform="translate(97.55 28.612)" fill="#ff2046" stroke="#ff2046" stroke-width="1.5"/>
    <rect id="Save_Money-3" data-name="Save Money" width="2.422" height="4.573" transform="translate(76.612 6.006)" fill="#ff2046" stroke="#ff2046" stroke-width="1.5"/>
    <path id="Save_Money-4" data-name="Save Money" d="M80.072,19.865l-1.206-2.1-3.479,2.009L76.6,21.865Z" transform="translate(19.813 -1.14)" fill="#ff2046" stroke="#ff2046" stroke-width="1.5"/>
    <rect id="Save_Money-5" data-name="Save Money" width="2.42" height="4.317" transform="translate(88.709 8.725) rotate(30.026)" fill="#ff2046" stroke="#ff2046" stroke-width="1.5"/>
    <path id="Save_Money-6" data-name="Save Money" d="M85.534,44.179c7-4.281,6.875-12.631,6.875-12.631A15.651,15.651,0,0,0,76.847,15.554c-1.524,0-4.75-.187-7.312,2.313a6.627,6.627,0,0,0-1.3-7.96,7.344,7.344,0,0,0-10.358.071L32.052,34.243A12.248,12.248,0,0,0,29,40.115L24.017,75.789V94.912H19.323V113.35H61.9V94.914H57.3v-.363c0-8.741,6.261-14.4,6.333-14.465L89.358,56.914a7.381,7.381,0,0,0,2.51-5.127,7.121,7.121,0,0,0-1.778-5.216A7.482,7.482,0,0,0,85.534,44.179ZM59.767,63.554c-1.436-6.93-1.694-7.3-1.928-7.616s-4.11-3.643-5.628-3.249c-.382.091-.9.385-3.174,2.135-.4-2.43-.839-5.108-1.166-7.1l-.408-2.5c-.027-.144,0-.277-.022-.416,2.93-2.135,5.132-2.435,7.678-1.045,3.73,2.022,9.869,7.382,9.875,7.382.015.017,1.424,1.72.864,7.294L61.949,61.95A16.745,16.745,0,0,1,59.767,63.554ZM57.529,64.7a7.281,7.281,0,0,1-2.627.6c-3.728,0-4.741-3.948-4.961-5.156-.112-.606-.268-1.53-.453-2.612,1.637-1.277,2.733-2.106,3.148-2.393a23.6,23.6,0,0,1,3.187,2.117A68.916,68.916,0,0,1,57.529,64.7Zm10.879-8.564c.023-4.855-1.51-6.532-1.748-6.755-.26-.228-6.411-5.606-10.384-7.754a8.292,8.292,0,0,0-8.534.09,8.54,8.54,0,0,1,2.386-3.43L60.829,27.8a17.454,17.454,0,0,0-.76,3.744A15.9,15.9,0,0,0,75.948,47.429a15.576,15.576,0,0,0,2.09-.154ZM89.4,31.548A13.453,13.453,0,1,1,75.948,18.1,13.47,13.47,0,0,1,89.4,31.548ZM59.478,110.929H21.744V97.335H59.478ZM87.747,55.1,62.013,78.274a23.1,23.1,0,0,0-7.141,16.276v.363H26.44l-.012-18.959,4.961-35.467a9.842,9.842,0,0,1,2.367-4.524l25.8-24.248a4.99,4.99,0,0,1,6.964-.094,4.957,4.957,0,0,1-.079,6.992L48.456,36.543c-2.836,2.6-3.974,5.658-3.383,9.084l.409,2.493c.624,3.831,1.667,10.212,2.074,12.466.632,3.453,2.892,7.144,7.345,7.144,4.219,0,8.489-3.818,8.667-3.979L81.289,47.812a5.1,5.1,0,0,1,3.677-1.254,4.767,4.767,0,0,1,4.481,5.078A4.971,4.971,0,0,1,87.747,55.1Z" fill="#ff2046" stroke="#ff2046" stroke-width="1.5"/>
    <path id="Save_Money-7" data-name="Save Money" d="M47.656,45.015a5.228,5.228,0,0,0-1.947-.873,6.244,6.244,0,0,0-.817-.11,2.933,2.933,0,0,1-.677-.107,2.119,2.119,0,0,1-1.385-1.967,2.089,2.089,0,0,1,2.086-2.086h.218a2.089,2.089,0,0,1,2.086,2.086,1.119,1.119,0,1,0,2.237,0A4.328,4.328,0,0,0,46.31,37.8V36.593a1.119,1.119,0,1,0-2.237,0v1.126a4.324,4.324,0,0,0-.609,8.314,4.729,4.729,0,0,0,1.233.228,4.155,4.155,0,0,1,.538.068,2.991,2.991,0,0,1,1.109.5,2.4,2.4,0,0,1,1.037,1.9,2.243,2.243,0,0,1-2.24,2.24h-.229a2.243,2.243,0,0,1-2.24-2.24,1.119,1.119,0,1,0-2.237,0,4.483,4.483,0,0,0,3.647,4.4v1.544a1.119,1.119,0,1,0,2.237,0V53.044a4.481,4.481,0,0,0,3.3-4.315A4.638,4.638,0,0,0,47.656,45.015Z" transform="translate(31.024 -13.67)" fill="#ff153d"/>
  </g>
</svg>
