<svg xmlns="http://www.w3.org/2000/svg" width="91.208" height="99.5" viewBox="0 0 91.208 99.5">
  <g id="Icon_clock" transform="translate(296 -80.274)">
    <path id="Icon_clock-2" data-name="Icon_clock" d="M11.46,55.379A45.592,45.592,0,0,0,31.675,93.239L25.213,106.28a2.074,2.074,0,0,0,3.717,1.842l6.3-12.72A45.494,45.494,0,0,0,78.905,95.4l6.4,12.736a2.073,2.073,0,1,0,3.7-1.862L82.459,93.235A45.463,45.463,0,0,0,90.7,24.691L94.379,21l2.678,2.678a2.073,2.073,0,0,0,2.931-2.931L91.7,12.455a2.073,2.073,0,0,0-2.931,2.931l2.683,2.683L87.77,21.759a45.327,45.327,0,0,0-61.412,0L22.68,18.069l2.683-2.683a2.073,2.073,0,0,0-2.931-2.931L14.14,20.746a2.073,2.073,0,1,0,2.931,2.931L19.749,21l3.678,3.692A45.374,45.374,0,0,0,11.46,55.379Zm87.063,0A41.458,41.458,0,1,1,57.064,13.92,41.5,41.5,0,0,1,98.522,55.379Z" transform="translate(-307.46 70.5)" fill="#ff153d"/>
    <g id="Icon_clock-3" data-name="Icon_clock" transform="translate(-289.055 91.33)">
      <path id="Icon_clock-4" data-name="Icon_clock" d="M31.508,27.247a2.349,2.349,0,0,0,2.35-2.35V15.5a2.35,2.35,0,0,0-4.7,0v9.4A2.349,2.349,0,0,0,31.508,27.247Z" transform="translate(7.481 -13.145)" fill="#ff153d"/>
      <path id="Icon_clock-5" data-name="Icon_clock" d="M31.508,38.427a2.349,2.349,0,0,0-2.35,2.35v9.4a2.35,2.35,0,0,0,4.7,0v-9.4A2.349,2.349,0,0,0,31.508,38.427Z" transform="translate(7.481 20.444)" fill="#ff153d"/>
      <path id="Icon_clock-6" data-name="Icon_clock" d="M42.463,32.172h9.4a2.35,2.35,0,0,0,0-4.7h-9.4a2.35,2.35,0,1,0,0,4.7Z" transform="translate(21.763 7.768)" fill="#ff153d"/>
      <path id="Icon_clock-7" data-name="Icon_clock" d="M14.831,29.822a2.349,2.349,0,0,0,2.35,2.35h9.4a2.35,2.35,0,1,0,0-4.7h-9.4A2.349,2.349,0,0,0,14.831,29.822Z" transform="translate(-12.831 7.768)" fill="#ff153d"/>
    </g>
    <path id="Icon_clock-8" data-name="Icon_clock" d="M38.323,46.813a2.461,2.461,0,0,0,3.4.075L66.847,23.86a2.461,2.461,0,1,0-3.326-3.629L40.137,41.668,28.96,30.491a2.461,2.461,0,0,0-3.48,3.48Z" transform="translate(-290.347 86.116)" fill="#ff153d"/>
  </g>
</svg>
