<svg xmlns="http://www.w3.org/2000/svg" width="89.162" height="90.667" viewBox="0 0 89.162 90.667">
  <g id="Icon_delivery" transform="translate(-726 -1876)">
    <path id="Icon_delivery-2" data-name="Icon_delivery" d="M95.162,7H6v5.046L41.026,47.072l-22.5,22.5L10.046,61.1H7V92.658H36.843l2.732,5.009H77.163l3.658-4.658-.22-.351H95.162Zm-50.09,4.009H57.09V22.48l-12.018,2ZM11.009,88.649v-21.5l7.514,7.514,6.009-6.009.478.478,10.1,19.521Zm64.08,5.009H42.551L28.235,67.413l-1.2-1.265L43.568,49.613l1.3,1.3L60.263,53.48l21.72,11.513c-2.031,1.252-7.506,4.3-15.811-2.346l-1.751-1.4-5.51,5.51,16.532,26.55Zm16.064-5.009H77.41L65.124,67.769c12.35,7.8,20.2.193,20.287.11l.734-.734V62.129L61.938,49.682,46.277,46.237,11.046,11.009H41.063V28.541H46.32L61.1,25.583V11.009H91.153Z" transform="translate(720 1869)" fill="#ff153d"/>
  </g>
</svg>
