<svg xmlns="http://www.w3.org/2000/svg" width="130" height="89.579" viewBox="0 0 130 89.579">
  <g id="Icon_Orçamento" transform="translate(-60 -33.993)">
    <path id="Icon_Orçamento-2" data-name="Icon_Orçamento" d="M39.469,27.582a55.2,55.2,0,0,1,28.4,0,2.407,2.407,0,1,1-1.253,4.648,50.413,50.413,0,0,0-25.893,0,2.442,2.442,0,0,1-.631.083,2.407,2.407,0,0,1-.626-4.732Z" transform="translate(73.944 20.401)" fill="#ff153d"/>
    <path id="Icon_Orçamento-3" data-name="Icon_Orçamento" d="M8.2,50.68A17.926,17.926,0,0,0,12.5,52.4a6.971,6.971,0,0,1,.342-3.506,2.171,2.171,0,0,1,.2-.556q.056-.121.113-.23c0-.009.007-.02.012-.029a2.151,2.151,0,0,1,.273-.389,4.748,4.748,0,0,1,2.882-1.953,5.527,5.527,0,0,1,3.831.56,5.147,5.147,0,0,1,2.512,6.4,2.2,2.2,0,0,1-.165.4c0,.007-.006.016-.01.025-.043.079-.091.157-.159.267-.023.042-.056.071-.082.11a7.089,7.089,0,0,1-2.616,2.421,9.03,9.03,0,0,0,1.823,1.033,8.493,8.493,0,0,0,3.218.481c2.2-20.924,23.209-37.392,48.736-37.392a56.729,56.729,0,0,1,22.208,4.465c2.885-3.663,7.508-5.516,13.774-5.516h8.267a2.167,2.167,0,0,1,1.917,3.176L112.34,35.907a.358.358,0,0,0,.082.4,39.362,39.362,0,0,1,6.553,9.777,5.529,5.529,0,0,0,4.915,3.379h5.092A6.02,6.02,0,0,1,135,55.475V66.632a6.025,6.025,0,0,1-6.018,6.018h-5.093a5.518,5.518,0,0,0-4.913,3.386,41.478,41.478,0,0,1-12.024,14.882,6.259,6.259,0,0,0-2.289,4.9v10.591a2.167,2.167,0,0,1-2.167,2.167H89.371a2.167,2.167,0,0,1-2.167-2.167v-5.989a58.447,58.447,0,0,1-28.057-.114v6.1a2.167,2.167,0,0,1-2.167,2.167H43.855a2.167,2.167,0,0,1-2.167-2.167V95.458a6.269,6.269,0,0,0-2.23-4.845C29.995,83,24.706,72.774,24.488,61.767a12.321,12.321,0,0,1-4.7-.81,12.949,12.949,0,0,1-5.2-3.938,19.207,19.207,0,0,1-8.447-2.528A2.166,2.166,0,0,1,8.2,50.68ZM42.181,87.24a10.5,10.5,0,0,1,3.841,8.216v8.781h8.792V99.083a3.4,3.4,0,0,1,3.4-3.4,3.447,3.447,0,0,1,.929.129,53.965,53.965,0,0,0,28.1.114,3.479,3.479,0,0,1,.878-.113,3.41,3.41,0,0,1,3.41,3.4v5.018h8.792V95.812a10.621,10.621,0,0,1,3.94-8.3A37.115,37.115,0,0,0,115.049,74.2a9.8,9.8,0,0,1,8.84-5.888h5.093a1.687,1.687,0,0,0,1.684-1.684V55.475a1.686,1.686,0,0,0-1.684-1.684h-5.093a9.814,9.814,0,0,1-8.84-5.876,35.019,35.019,0,0,0-5.838-8.7,4.7,4.7,0,0,1-.706-5.327l5.56-10.563h-4.679c-5.557,0-9.2,1.631-11.125,4.985a2.169,2.169,0,0,1-2.8.88A52.058,52.058,0,0,0,73.4,24.376c-24.025,0-43.664,15.705-44.561,35.286a1.958,1.958,0,0,1-.009.276c-.013.373-.035.744-.035,1.119C28.8,71,33.549,80.294,42.181,87.24Zm-24.1-37.134a1.189,1.189,0,0,0-.819-.143.433.433,0,0,0-.3.2l0,.01a3.009,3.009,0,0,0-.02,2.217,3.014,3.014,0,0,0,1.732-1.33s0,0,0,0C18.767,50.879,18.612,50.392,18.084,50.106Z" transform="translate(55 15)" fill="#ff153d"/>
    <ellipse id="Icon_Orçamento-4" data-name="Icon_Orçamento" cx="3.223" cy="3.223" rx="3.223" ry="3.223" transform="translate(158.51 62.251)" fill="#ff153d"/>
    <path id="Icon_Orçamento-5" data-name="Icon_Orçamento" d="M57.007,57.367a12,12,0,0,0-4.468-2,14.326,14.326,0,0,0-1.876-.252,6.732,6.732,0,0,1-1.553-.245,4.861,4.861,0,0,1-3.178-4.513,4.793,4.793,0,0,1,4.788-4.788h.5a4.793,4.793,0,0,1,4.788,4.788,2.567,2.567,0,0,0,5.134,0,9.932,9.932,0,0,0-7.223-9.539V38.041a2.567,2.567,0,1,0-5.134,0v2.583a9.923,9.923,0,0,0-1.4,19.079,10.853,10.853,0,0,0,2.829.523,9.533,9.533,0,0,1,1.234.156,6.863,6.863,0,0,1,2.545,1.141,5.5,5.5,0,0,1,2.379,4.366,5.146,5.146,0,0,1-5.141,5.141h-.525a5.147,5.147,0,0,1-5.141-5.141,2.567,2.567,0,1,0-5.134,0A10.286,10.286,0,0,0,48.8,75.979v3.543a2.567,2.567,0,1,0,5.134,0v-3.73a10.282,10.282,0,0,0,7.57-9.9A10.642,10.642,0,0,0,57.007,57.367Z" transform="translate(79.806 23.367)" fill="#ff153d"/>
  </g>
</svg>
