<svg xmlns="http://www.w3.org/2000/svg" width="960" height="660" viewBox="0 0 960 660">
  <g id="Intro" transform="translate(0 -2316)">
    <rect id="Banner_Header" data-name="Banner Header" width="960" height="660" transform="translate(0 2316)" fill="#ff153d"/>
    <g id="Type" transform="translate(50.682 106.819)">
      <path id="Yakult" d="M134.4,247.017a9.341,9.341,0,0,1,.118-1.878c-.021-.146-.042-.292-.07-.431a2.652,2.652,0,0,0,.083-.355c.028-.237.014-.466.049-.7a3.728,3.728,0,0,0-.23-1.83,1.138,1.138,0,0,0-.209-.355c-.25-.313-.515-.619-.793-.911-.209-.223-.438-.431-.647-.654a9.667,9.667,0,0,1-1.169-1.593,4.275,4.275,0,0,1-.584-1.371c-.174-.863-.341-1.725-.459-2.6a6.716,6.716,0,0,1-.077-1.183,14.009,14.009,0,0,1,.327-2.275,5.838,5.838,0,0,1,1.224-2.519c.55-.654,1.134-1.28,1.746-1.879a4.159,4.159,0,0,0,.577-.682,3.884,3.884,0,0,0,.738-2.115c.014-.8.014-1.593.049-2.393.049-1.065-.028-2.129.049-3.193.042-.571.021-1.141.049-1.719.035-.821.021-1.649,0-2.47a2.413,2.413,0,0,0-1.218-2.24c-.313-.195-.64-.383-.967-.557a.628.628,0,0,1-.327-.39q-1.231-3.747-2.519-7.479c-.424-1.245-.856-2.484-1.287-3.729a1.566,1.566,0,0,1-.1-.57.676.676,0,0,0-.035-.264.141.141,0,0,1,.1-.209,1.88,1.88,0,0,0,.466-.292.384.384,0,0,0,.16-.459,4.238,4.238,0,0,1-.174-1.141.785.785,0,0,0-.07-.306,10.334,10.334,0,0,1-.369-1.28,7.623,7.623,0,0,1-.271-2.345,1.632,1.632,0,0,0-.028-.41c-.083-.459-.153-.925-.244-1.385a12.152,12.152,0,0,0-.271-1.329,1.91,1.91,0,0,0-1.329-1.357c-.751-.216-1.517-.376-2.289-.522-.744-.139-1.489-.271-2.247-.355-.494-.056-.995-.1-1.489-.146q-1.1-.094-2.192-.146c-.417-.021-.842-.021-1.259-.049-.821-.063-1.642-.049-2.463-.077-.737-.028-1.482-.007-2.226.021-1.176.042-2.352.049-3.527.1-.522.028-1.044.014-1.572.049-.675.042-1.35.1-2.025.167-.786.077-1.572.174-2.352.278a20.257,20.257,0,0,0-2.407.424,7.085,7.085,0,0,0-1.572.612.937.937,0,0,0-.515.626c-.1.39-.23.772-.334,1.162a9.159,9.159,0,0,0-.271,1.127c-.083.605-.111,1.218-.139,1.83a10.423,10.423,0,0,1-.111,1.4,1.973,1.973,0,0,1-.327,1.058.094.094,0,0,0-.014.063c.063.035.07-.1.153-.028a1.786,1.786,0,0,1-.16.494c-.146.334-.3.661-.445.995-.077.167-.1.327.083.445a.136.136,0,0,1,.049.188c-.028.07-.063.139-.007.209a1.173,1.173,0,0,0,.515.424c.383.111.39.1.264.48-.007.028-.021.063-.028.09-.445,1.273-.891,2.539-1.336,3.813-.209.6-.424,1.2-.64,1.8q-.741,2.066-1.482,4.119c-.181.5-.369,1-.55,1.5a.473.473,0,0,1-.327.32,2.642,2.642,0,0,0-.577.25,3.716,3.716,0,0,0-1.6,1.851.487.487,0,0,0-.063.257,6.053,6.053,0,0,1-.021.87c.014,2.331-.035,4.661.035,6.992.035,1.106.007,2.212.056,3.312a.734.734,0,0,0,.021.216,3.093,3.093,0,0,0,1.294,1.774c.118.07.23.153.341.23a.851.851,0,0,1,.237.237c.237.327.48.647.71.981a5.809,5.809,0,0,1,.772,1.336c.264.724.48,1.454.675,2.2a5.921,5.921,0,0,1,.2,1.677c-.014.536-.042,1.064-.1,1.593a11.438,11.438,0,0,1-.355,2,4.635,4.635,0,0,1-.772,1.684,15.931,15.931,0,0,1-1.955,2.038,2.918,2.918,0,0,0-1.092,2.254v1.649a.405.405,0,0,1-.035.257.2.2,0,0,0-.035.09c0,.223,0,.452-.014.668v.07c-.007.4,0,.807,0,1.2a12.066,12.066,0,0,1,.139,1.336,9.655,9.655,0,0,1-.2,2.379c.028.1.035.2.063.306v1.148c.007.682.028,1.371.014,2.052-.007.494-.007.981-.007,1.475,0,.174.014.355.021.529.007.216-.021.424-.028.64-.021.584.014,1.169,0,1.76-.014.5-.007,1,0,1.5.007.57.007,1.148.007,1.718,0,1.051-.014,2.094,0,3.145a2.416,2.416,0,0,1,.028.383c-.042.285-.021.577-.035.863-.021.494,0,.981-.007,1.475s.035.981.014,1.468c-.021.459,0,.918,0,1.378.007.877-.007,1.753-.014,2.63a.938.938,0,0,0,.014.243,2.976,2.976,0,0,1,.077.96,2.074,2.074,0,0,0,.118.737,8.574,8.574,0,0,0,.731,1.607,6.225,6.225,0,0,0,1.823,2.011,21.875,21.875,0,0,0,3.214,1.83,24.082,24.082,0,0,0,4.717,1.572,37.918,37.918,0,0,0,5.663.821c.946.07,1.9.125,2.846.146,1.858.035,3.708.021,5.566-.042a.236.236,0,0,0,.07-.007c.7-.063,1.4-.063,2.1-.132.459-.049.918-.063,1.371-.118.682-.077,1.357-.16,2.039-.264a29.108,29.108,0,0,0,4.147-.953,25.018,25.018,0,0,0,4.515-1.92,8.654,8.654,0,0,0,2.818-2.317,2.9,2.9,0,0,0,.689-1.545c.021-.23.042-.466.07-.7a7.864,7.864,0,0,1,.111-1.078,5.818,5.818,0,0,0,.125-1.343c.021-.675-.021-1.357.035-2.032.028-.341,0-.675.007-1.016.021-.71.042-1.419.056-2.129.014-.668,0-1.336.035-2,.035-.612,0-1.225.049-1.837.049-.71.021-1.419.049-2.129.028-.758.028-1.517.042-2.275.021-.946.056-1.885.07-2.832.007-.612.021-1.224.035-1.837.021-1.051.049-2.094.07-3.145.007-.341-.014-.682.014-1.016.042-.459.042-.918.042-1.384a1.7,1.7,0,0,0,.007-.188C134.459,247.838,134.417,247.428,134.4,247.017Zm-42.927-1.51c-.028-.035-.063-.063-.09-.1a.38.38,0,0,1-.07-.4c.1.111.174.216.243.306C91.524,245.375,91.5,245.445,91.469,245.507Z" transform="translate(-26.909 2197.976)" fill="#fee5d8"/>
      <path id="Yakult-2" data-name="Yakult" d="M134.4,247.017a9.341,9.341,0,0,1,.118-1.878c-.021-.146-.042-.292-.07-.431a2.652,2.652,0,0,0,.083-.355c.028-.237.014-.466.049-.7a3.728,3.728,0,0,0-.23-1.83,1.138,1.138,0,0,0-.209-.355c-.25-.313-.515-.619-.793-.911-.209-.223-.438-.431-.647-.654a9.667,9.667,0,0,1-1.169-1.593,4.275,4.275,0,0,1-.584-1.371c-.174-.863-.341-1.725-.459-2.6a6.716,6.716,0,0,1-.077-1.183,14.009,14.009,0,0,1,.327-2.275,5.838,5.838,0,0,1,1.224-2.519c.55-.654,1.134-1.28,1.746-1.879a4.159,4.159,0,0,0,.577-.682,3.884,3.884,0,0,0,.738-2.115c.014-.8.014-1.593.049-2.393.049-1.065-.028-2.129.049-3.193.042-.571.021-1.141.049-1.719.035-.821.021-1.649,0-2.47a2.413,2.413,0,0,0-1.218-2.24c-.313-.195-.64-.383-.967-.557a.628.628,0,0,1-.327-.39q-1.231-3.747-2.519-7.479c-.424-1.245-.856-2.484-1.287-3.729a1.566,1.566,0,0,1-.1-.57.676.676,0,0,0-.035-.264.141.141,0,0,1,.1-.209,1.88,1.88,0,0,0,.466-.292.384.384,0,0,0,.16-.459,4.238,4.238,0,0,1-.174-1.141.785.785,0,0,0-.07-.306,10.334,10.334,0,0,1-.369-1.28,7.623,7.623,0,0,1-.271-2.345,1.632,1.632,0,0,0-.028-.41c-.083-.459-.153-.925-.244-1.385a12.152,12.152,0,0,0-.271-1.329,1.91,1.91,0,0,0-1.329-1.357c-.751-.216-1.517-.376-2.289-.522-.744-.139-1.489-.271-2.247-.355-.494-.056-.995-.1-1.489-.146q-1.1-.094-2.192-.146c-.417-.021-.842-.021-1.259-.049-.821-.063-1.642-.049-2.463-.077-.737-.028-1.482-.007-2.226.021-1.176.042-2.352.049-3.527.1-.522.028-1.044.014-1.572.049-.675.042-1.35.1-2.025.167-.786.077-1.572.174-2.352.278a20.257,20.257,0,0,0-2.407.424,7.085,7.085,0,0,0-1.572.612.937.937,0,0,0-.515.626c-.1.39-.23.772-.334,1.162a9.159,9.159,0,0,0-.271,1.127c-.083.605-.111,1.218-.139,1.83a10.423,10.423,0,0,1-.111,1.4,1.973,1.973,0,0,1-.327,1.058.094.094,0,0,0-.014.063c.063.035.07-.1.153-.028a1.786,1.786,0,0,1-.16.494c-.146.334-.3.661-.445.995-.077.167-.1.327.083.445a.136.136,0,0,1,.049.188c-.028.07-.063.139-.007.209a1.173,1.173,0,0,0,.515.424c.383.111.39.1.264.48-.007.028-.021.063-.028.09-.445,1.273-.891,2.539-1.336,3.813-.209.6-.424,1.2-.64,1.8q-.741,2.066-1.482,4.119c-.181.5-.369,1-.55,1.5a.473.473,0,0,1-.327.32,2.642,2.642,0,0,0-.577.25,3.716,3.716,0,0,0-1.6,1.851.487.487,0,0,0-.063.257,6.053,6.053,0,0,1-.021.87c.014,2.331-.035,4.661.035,6.992.035,1.106.007,2.212.056,3.312a.734.734,0,0,0,.021.216,3.093,3.093,0,0,0,1.294,1.774c.118.07.23.153.341.23a.851.851,0,0,1,.237.237c.237.327.48.647.71.981a5.809,5.809,0,0,1,.772,1.336c.264.724.48,1.454.675,2.2a5.921,5.921,0,0,1,.2,1.677c-.014.536-.042,1.064-.1,1.593a11.438,11.438,0,0,1-.355,2,4.635,4.635,0,0,1-.772,1.684,15.931,15.931,0,0,1-1.955,2.038,2.918,2.918,0,0,0-1.092,2.254v1.649a.405.405,0,0,1-.035.257.2.2,0,0,0-.035.09c0,.223,0,.452-.014.668v.07c-.007.4,0,.807,0,1.2a12.066,12.066,0,0,1,.139,1.336,9.655,9.655,0,0,1-.2,2.379c.028.1.035.2.063.306v1.148c.007.682.028,1.371.014,2.052-.007.494-.007.981-.007,1.475,0,.174.014.355.021.529.007.216-.021.424-.028.64-.021.584.014,1.169,0,1.76-.014.5-.007,1,0,1.5.007.57.007,1.148.007,1.718,0,1.051-.014,2.094,0,3.145a2.416,2.416,0,0,1,.028.383c-.042.285-.021.577-.035.863-.021.494,0,.981-.007,1.475s.035.981.014,1.468c-.021.459,0,.918,0,1.378.007.877-.007,1.753-.014,2.63a.938.938,0,0,0,.014.243,2.976,2.976,0,0,1,.077.96,2.074,2.074,0,0,0,.118.737,8.574,8.574,0,0,0,.731,1.607,6.225,6.225,0,0,0,1.823,2.011,21.875,21.875,0,0,0,3.214,1.83,24.082,24.082,0,0,0,4.717,1.572,37.918,37.918,0,0,0,5.663.821c.946.07,1.9.125,2.846.146,1.858.035,3.708.021,5.566-.042a.236.236,0,0,0,.07-.007c.7-.063,1.4-.063,2.1-.132.459-.049.918-.063,1.371-.118.682-.077,1.357-.16,2.039-.264a29.108,29.108,0,0,0,4.147-.953,25.018,25.018,0,0,0,4.515-1.92,8.654,8.654,0,0,0,2.818-2.317,2.9,2.9,0,0,0,.689-1.545c.021-.23.042-.466.07-.7a7.864,7.864,0,0,1,.111-1.078,5.818,5.818,0,0,0,.125-1.343c.021-.675-.021-1.357.035-2.032.028-.341,0-.675.007-1.016.021-.71.042-1.419.056-2.129.014-.668,0-1.336.035-2,.035-.612,0-1.225.049-1.837.049-.71.021-1.419.049-2.129.028-.758.028-1.517.042-2.275.021-.946.056-1.885.07-2.832.007-.612.021-1.224.035-1.837.021-1.051.049-2.094.07-3.145.007-.341-.014-.682.014-1.016.042-.459.042-.918.042-1.384a1.7,1.7,0,0,0,.007-.188C134.459,247.838,134.417,247.428,134.4,247.017Zm-42.927-1.51c-.028-.035-.063-.063-.09-.1a.38.38,0,0,1-.07-.4c.1.111.174.216.243.306C91.524,245.375,91.5,245.445,91.469,245.507Z" transform="translate(527.823 2197.976)" fill="#fee5d8"/>
      <path id="Yakult-3" data-name="Yakult" d="M134.4,247.017a9.341,9.341,0,0,1,.118-1.878c-.021-.146-.042-.292-.07-.431a2.652,2.652,0,0,0,.083-.355c.028-.237.014-.466.049-.7a3.728,3.728,0,0,0-.23-1.83,1.138,1.138,0,0,0-.209-.355c-.25-.313-.515-.619-.793-.911-.209-.223-.438-.431-.647-.654a9.667,9.667,0,0,1-1.169-1.593,4.275,4.275,0,0,1-.584-1.371c-.174-.863-.341-1.725-.459-2.6a6.716,6.716,0,0,1-.077-1.183,14.009,14.009,0,0,1,.327-2.275,5.838,5.838,0,0,1,1.224-2.519c.55-.654,1.134-1.28,1.746-1.879a4.159,4.159,0,0,0,.577-.682,3.884,3.884,0,0,0,.738-2.115c.014-.8.014-1.593.049-2.393.049-1.065-.028-2.129.049-3.193.042-.571.021-1.141.049-1.719.035-.821.021-1.649,0-2.47a2.413,2.413,0,0,0-1.218-2.24c-.313-.195-.64-.383-.967-.557a.628.628,0,0,1-.327-.39q-1.231-3.747-2.519-7.479c-.424-1.245-.856-2.484-1.287-3.729a1.566,1.566,0,0,1-.1-.57.676.676,0,0,0-.035-.264.141.141,0,0,1,.1-.209,1.88,1.88,0,0,0,.466-.292.384.384,0,0,0,.16-.459,4.238,4.238,0,0,1-.174-1.141.785.785,0,0,0-.07-.306,10.334,10.334,0,0,1-.369-1.28,7.623,7.623,0,0,1-.271-2.345,1.632,1.632,0,0,0-.028-.41c-.083-.459-.153-.925-.244-1.385a12.152,12.152,0,0,0-.271-1.329,1.91,1.91,0,0,0-1.329-1.357c-.751-.216-1.517-.376-2.289-.522-.744-.139-1.489-.271-2.247-.355-.494-.056-.995-.1-1.489-.146q-1.1-.094-2.192-.146c-.417-.021-.842-.021-1.259-.049-.821-.063-1.642-.049-2.463-.077-.737-.028-1.482-.007-2.226.021-1.176.042-2.352.049-3.527.1-.522.028-1.044.014-1.572.049-.675.042-1.35.1-2.025.167-.786.077-1.572.174-2.352.278a20.257,20.257,0,0,0-2.407.424,7.085,7.085,0,0,0-1.572.612.937.937,0,0,0-.515.626c-.1.39-.23.772-.334,1.162a9.159,9.159,0,0,0-.271,1.127c-.083.605-.111,1.218-.139,1.83a10.423,10.423,0,0,1-.111,1.4,1.973,1.973,0,0,1-.327,1.058.094.094,0,0,0-.014.063c.063.035.07-.1.153-.028a1.786,1.786,0,0,1-.16.494c-.146.334-.3.661-.445.995-.077.167-.1.327.083.445a.136.136,0,0,1,.049.188c-.028.07-.063.139-.007.209a1.173,1.173,0,0,0,.515.424c.383.111.39.1.264.48-.007.028-.021.063-.028.09-.445,1.273-.891,2.539-1.336,3.813-.209.6-.424,1.2-.64,1.8q-.741,2.066-1.482,4.119c-.181.5-.369,1-.55,1.5a.473.473,0,0,1-.327.32,2.642,2.642,0,0,0-.577.25,3.716,3.716,0,0,0-1.6,1.851.487.487,0,0,0-.063.257,6.053,6.053,0,0,1-.021.87c.014,2.331-.035,4.661.035,6.992.035,1.106.007,2.212.056,3.312a.734.734,0,0,0,.021.216,3.093,3.093,0,0,0,1.294,1.774c.118.07.23.153.341.23a.851.851,0,0,1,.237.237c.237.327.48.647.71.981a5.809,5.809,0,0,1,.772,1.336c.264.724.48,1.454.675,2.2a5.921,5.921,0,0,1,.2,1.677c-.014.536-.042,1.064-.1,1.593a11.438,11.438,0,0,1-.355,2,4.635,4.635,0,0,1-.772,1.684,15.931,15.931,0,0,1-1.955,2.038,2.918,2.918,0,0,0-1.092,2.254v1.649a.405.405,0,0,1-.035.257.2.2,0,0,0-.035.09c0,.223,0,.452-.014.668v.07c-.007.4,0,.807,0,1.2a12.066,12.066,0,0,1,.139,1.336,9.655,9.655,0,0,1-.2,2.379c.028.1.035.2.063.306v1.148c.007.682.028,1.371.014,2.052-.007.494-.007.981-.007,1.475,0,.174.014.355.021.529.007.216-.021.424-.028.64-.021.584.014,1.169,0,1.76-.014.5-.007,1,0,1.5.007.57.007,1.148.007,1.718,0,1.051-.014,2.094,0,3.145a2.416,2.416,0,0,1,.028.383c-.042.285-.021.577-.035.863-.021.494,0,.981-.007,1.475s.035.981.014,1.468c-.021.459,0,.918,0,1.378.007.877-.007,1.753-.014,2.63a.938.938,0,0,0,.014.243,2.976,2.976,0,0,1,.077.96,2.074,2.074,0,0,0,.118.737,8.574,8.574,0,0,0,.731,1.607,6.225,6.225,0,0,0,1.823,2.011,21.875,21.875,0,0,0,3.214,1.83,24.082,24.082,0,0,0,4.717,1.572,37.918,37.918,0,0,0,5.663.821c.946.07,1.9.125,2.846.146,1.858.035,3.708.021,5.566-.042a.236.236,0,0,0,.07-.007c.7-.063,1.4-.063,2.1-.132.459-.049.918-.063,1.371-.118.682-.077,1.357-.16,2.039-.264a29.108,29.108,0,0,0,4.147-.953,25.018,25.018,0,0,0,4.515-1.92,8.654,8.654,0,0,0,2.818-2.317,2.9,2.9,0,0,0,.689-1.545c.021-.23.042-.466.07-.7a7.864,7.864,0,0,1,.111-1.078,5.818,5.818,0,0,0,.125-1.343c.021-.675-.021-1.357.035-2.032.028-.341,0-.675.007-1.016.021-.71.042-1.419.056-2.129.014-.668,0-1.336.035-2,.035-.612,0-1.225.049-1.837.049-.71.021-1.419.049-2.129.028-.758.028-1.517.042-2.275.021-.946.056-1.885.07-2.832.007-.612.021-1.224.035-1.837.021-1.051.049-2.094.07-3.145.007-.341-.014-.682.014-1.016.042-.459.042-.918.042-1.384a1.7,1.7,0,0,0,.007-.188C134.459,247.838,134.417,247.428,134.4,247.017Zm-42.927-1.51c-.028-.035-.063-.063-.09-.1a.38.38,0,0,1-.07-.4c.1.111.174.216.243.306C91.524,245.375,91.5,245.445,91.469,245.507Z" transform="translate(-26.909 2419.976)" fill="#fee5d8"/>
      <path id="Yakult-4" data-name="Yakult" d="M134.4,247.017a9.341,9.341,0,0,1,.118-1.878c-.021-.146-.042-.292-.07-.431a2.652,2.652,0,0,0,.083-.355c.028-.237.014-.466.049-.7a3.728,3.728,0,0,0-.23-1.83,1.138,1.138,0,0,0-.209-.355c-.25-.313-.515-.619-.793-.911-.209-.223-.438-.431-.647-.654a9.667,9.667,0,0,1-1.169-1.593,4.275,4.275,0,0,1-.584-1.371c-.174-.863-.341-1.725-.459-2.6a6.716,6.716,0,0,1-.077-1.183,14.009,14.009,0,0,1,.327-2.275,5.838,5.838,0,0,1,1.224-2.519c.55-.654,1.134-1.28,1.746-1.879a4.159,4.159,0,0,0,.577-.682,3.884,3.884,0,0,0,.738-2.115c.014-.8.014-1.593.049-2.393.049-1.065-.028-2.129.049-3.193.042-.571.021-1.141.049-1.719.035-.821.021-1.649,0-2.47a2.413,2.413,0,0,0-1.218-2.24c-.313-.195-.64-.383-.967-.557a.628.628,0,0,1-.327-.39q-1.231-3.747-2.519-7.479c-.424-1.245-.856-2.484-1.287-3.729a1.566,1.566,0,0,1-.1-.57.676.676,0,0,0-.035-.264.141.141,0,0,1,.1-.209,1.88,1.88,0,0,0,.466-.292.384.384,0,0,0,.16-.459,4.238,4.238,0,0,1-.174-1.141.785.785,0,0,0-.07-.306,10.334,10.334,0,0,1-.369-1.28,7.623,7.623,0,0,1-.271-2.345,1.632,1.632,0,0,0-.028-.41c-.083-.459-.153-.925-.244-1.385a12.152,12.152,0,0,0-.271-1.329,1.91,1.91,0,0,0-1.329-1.357c-.751-.216-1.517-.376-2.289-.522-.744-.139-1.489-.271-2.247-.355-.494-.056-.995-.1-1.489-.146q-1.1-.094-2.192-.146c-.417-.021-.842-.021-1.259-.049-.821-.063-1.642-.049-2.463-.077-.737-.028-1.482-.007-2.226.021-1.176.042-2.352.049-3.527.1-.522.028-1.044.014-1.572.049-.675.042-1.35.1-2.025.167-.786.077-1.572.174-2.352.278a20.257,20.257,0,0,0-2.407.424,7.085,7.085,0,0,0-1.572.612.937.937,0,0,0-.515.626c-.1.39-.23.772-.334,1.162a9.159,9.159,0,0,0-.271,1.127c-.083.605-.111,1.218-.139,1.83a10.423,10.423,0,0,1-.111,1.4,1.973,1.973,0,0,1-.327,1.058.094.094,0,0,0-.014.063c.063.035.07-.1.153-.028a1.786,1.786,0,0,1-.16.494c-.146.334-.3.661-.445.995-.077.167-.1.327.083.445a.136.136,0,0,1,.049.188c-.028.07-.063.139-.007.209a1.173,1.173,0,0,0,.515.424c.383.111.39.1.264.48-.007.028-.021.063-.028.09-.445,1.273-.891,2.539-1.336,3.813-.209.6-.424,1.2-.64,1.8q-.741,2.066-1.482,4.119c-.181.5-.369,1-.55,1.5a.473.473,0,0,1-.327.32,2.642,2.642,0,0,0-.577.25,3.716,3.716,0,0,0-1.6,1.851.487.487,0,0,0-.063.257,6.053,6.053,0,0,1-.021.87c.014,2.331-.035,4.661.035,6.992.035,1.106.007,2.212.056,3.312a.734.734,0,0,0,.021.216,3.093,3.093,0,0,0,1.294,1.774c.118.07.23.153.341.23a.851.851,0,0,1,.237.237c.237.327.48.647.71.981a5.809,5.809,0,0,1,.772,1.336c.264.724.48,1.454.675,2.2a5.921,5.921,0,0,1,.2,1.677c-.014.536-.042,1.064-.1,1.593a11.438,11.438,0,0,1-.355,2,4.635,4.635,0,0,1-.772,1.684,15.931,15.931,0,0,1-1.955,2.038,2.918,2.918,0,0,0-1.092,2.254v1.649a.405.405,0,0,1-.035.257.2.2,0,0,0-.035.09c0,.223,0,.452-.014.668v.07c-.007.4,0,.807,0,1.2a12.066,12.066,0,0,1,.139,1.336,9.655,9.655,0,0,1-.2,2.379c.028.1.035.2.063.306v1.148c.007.682.028,1.371.014,2.052-.007.494-.007.981-.007,1.475,0,.174.014.355.021.529.007.216-.021.424-.028.64-.021.584.014,1.169,0,1.76-.014.5-.007,1,0,1.5.007.57.007,1.148.007,1.718,0,1.051-.014,2.094,0,3.145a2.416,2.416,0,0,1,.028.383c-.042.285-.021.577-.035.863-.021.494,0,.981-.007,1.475s.035.981.014,1.468c-.021.459,0,.918,0,1.378.007.877-.007,1.753-.014,2.63a.938.938,0,0,0,.014.243,2.976,2.976,0,0,1,.077.96,2.074,2.074,0,0,0,.118.737,8.574,8.574,0,0,0,.731,1.607,6.225,6.225,0,0,0,1.823,2.011,21.875,21.875,0,0,0,3.214,1.83,24.082,24.082,0,0,0,4.717,1.572,37.918,37.918,0,0,0,5.663.821c.946.07,1.9.125,2.846.146,1.858.035,3.708.021,5.566-.042a.236.236,0,0,0,.07-.007c.7-.063,1.4-.063,2.1-.132.459-.049.918-.063,1.371-.118.682-.077,1.357-.16,2.039-.264a29.108,29.108,0,0,0,4.147-.953,25.018,25.018,0,0,0,4.515-1.92,8.654,8.654,0,0,0,2.818-2.317,2.9,2.9,0,0,0,.689-1.545c.021-.23.042-.466.07-.7a7.864,7.864,0,0,1,.111-1.078,5.818,5.818,0,0,0,.125-1.343c.021-.675-.021-1.357.035-2.032.028-.341,0-.675.007-1.016.021-.71.042-1.419.056-2.129.014-.668,0-1.336.035-2,.035-.612,0-1.225.049-1.837.049-.71.021-1.419.049-2.129.028-.758.028-1.517.042-2.275.021-.946.056-1.885.07-2.832.007-.612.021-1.224.035-1.837.021-1.051.049-2.094.07-3.145.007-.341-.014-.682.014-1.016.042-.459.042-.918.042-1.384a1.7,1.7,0,0,0,.007-.188C134.459,247.838,134.417,247.428,134.4,247.017Zm-42.927-1.51c-.028-.035-.063-.063-.09-.1a.38.38,0,0,1-.07-.4c.1.111.174.216.243.306C91.524,245.375,91.5,245.445,91.469,245.507Z" transform="translate(32.18 2197.976)" fill="#fee5d8"/>
      <path id="Yakult-5" data-name="Yakult" d="M134.4,247.017a9.341,9.341,0,0,1,.118-1.878c-.021-.146-.042-.292-.07-.431a2.652,2.652,0,0,0,.083-.355c.028-.237.014-.466.049-.7a3.728,3.728,0,0,0-.23-1.83,1.138,1.138,0,0,0-.209-.355c-.25-.313-.515-.619-.793-.911-.209-.223-.438-.431-.647-.654a9.667,9.667,0,0,1-1.169-1.593,4.275,4.275,0,0,1-.584-1.371c-.174-.863-.341-1.725-.459-2.6a6.716,6.716,0,0,1-.077-1.183,14.009,14.009,0,0,1,.327-2.275,5.838,5.838,0,0,1,1.224-2.519c.55-.654,1.134-1.28,1.746-1.879a4.159,4.159,0,0,0,.577-.682,3.884,3.884,0,0,0,.738-2.115c.014-.8.014-1.593.049-2.393.049-1.065-.028-2.129.049-3.193.042-.571.021-1.141.049-1.719.035-.821.021-1.649,0-2.47a2.413,2.413,0,0,0-1.218-2.24c-.313-.195-.64-.383-.967-.557a.628.628,0,0,1-.327-.39q-1.231-3.747-2.519-7.479c-.424-1.245-.856-2.484-1.287-3.729a1.566,1.566,0,0,1-.1-.57.676.676,0,0,0-.035-.264.141.141,0,0,1,.1-.209,1.88,1.88,0,0,0,.466-.292.384.384,0,0,0,.16-.459,4.238,4.238,0,0,1-.174-1.141.785.785,0,0,0-.07-.306,10.334,10.334,0,0,1-.369-1.28,7.623,7.623,0,0,1-.271-2.345,1.632,1.632,0,0,0-.028-.41c-.083-.459-.153-.925-.244-1.385a12.152,12.152,0,0,0-.271-1.329,1.91,1.91,0,0,0-1.329-1.357c-.751-.216-1.517-.376-2.289-.522-.744-.139-1.489-.271-2.247-.355-.494-.056-.995-.1-1.489-.146q-1.1-.094-2.192-.146c-.417-.021-.842-.021-1.259-.049-.821-.063-1.642-.049-2.463-.077-.737-.028-1.482-.007-2.226.021-1.176.042-2.352.049-3.527.1-.522.028-1.044.014-1.572.049-.675.042-1.35.1-2.025.167-.786.077-1.572.174-2.352.278a20.257,20.257,0,0,0-2.407.424,7.085,7.085,0,0,0-1.572.612.937.937,0,0,0-.515.626c-.1.39-.23.772-.334,1.162a9.159,9.159,0,0,0-.271,1.127c-.083.605-.111,1.218-.139,1.83a10.423,10.423,0,0,1-.111,1.4,1.973,1.973,0,0,1-.327,1.058.094.094,0,0,0-.014.063c.063.035.07-.1.153-.028a1.786,1.786,0,0,1-.16.494c-.146.334-.3.661-.445.995-.077.167-.1.327.083.445a.136.136,0,0,1,.049.188c-.028.07-.063.139-.007.209a1.173,1.173,0,0,0,.515.424c.383.111.39.1.264.48-.007.028-.021.063-.028.09-.445,1.273-.891,2.539-1.336,3.813-.209.6-.424,1.2-.64,1.8q-.741,2.066-1.482,4.119c-.181.5-.369,1-.55,1.5a.473.473,0,0,1-.327.32,2.642,2.642,0,0,0-.577.25,3.716,3.716,0,0,0-1.6,1.851.487.487,0,0,0-.063.257,6.053,6.053,0,0,1-.021.87c.014,2.331-.035,4.661.035,6.992.035,1.106.007,2.212.056,3.312a.734.734,0,0,0,.021.216,3.093,3.093,0,0,0,1.294,1.774c.118.07.23.153.341.23a.851.851,0,0,1,.237.237c.237.327.48.647.71.981a5.809,5.809,0,0,1,.772,1.336c.264.724.48,1.454.675,2.2a5.921,5.921,0,0,1,.2,1.677c-.014.536-.042,1.064-.1,1.593a11.438,11.438,0,0,1-.355,2,4.635,4.635,0,0,1-.772,1.684,15.931,15.931,0,0,1-1.955,2.038,2.918,2.918,0,0,0-1.092,2.254v1.649a.405.405,0,0,1-.035.257.2.2,0,0,0-.035.09c0,.223,0,.452-.014.668v.07c-.007.4,0,.807,0,1.2a12.066,12.066,0,0,1,.139,1.336,9.655,9.655,0,0,1-.2,2.379c.028.1.035.2.063.306v1.148c.007.682.028,1.371.014,2.052-.007.494-.007.981-.007,1.475,0,.174.014.355.021.529.007.216-.021.424-.028.64-.021.584.014,1.169,0,1.76-.014.5-.007,1,0,1.5.007.57.007,1.148.007,1.718,0,1.051-.014,2.094,0,3.145a2.416,2.416,0,0,1,.028.383c-.042.285-.021.577-.035.863-.021.494,0,.981-.007,1.475s.035.981.014,1.468c-.021.459,0,.918,0,1.378.007.877-.007,1.753-.014,2.63a.938.938,0,0,0,.014.243,2.976,2.976,0,0,1,.077.96,2.074,2.074,0,0,0,.118.737,8.574,8.574,0,0,0,.731,1.607,6.225,6.225,0,0,0,1.823,2.011,21.875,21.875,0,0,0,3.214,1.83,24.082,24.082,0,0,0,4.717,1.572,37.918,37.918,0,0,0,5.663.821c.946.07,1.9.125,2.846.146,1.858.035,3.708.021,5.566-.042a.236.236,0,0,0,.07-.007c.7-.063,1.4-.063,2.1-.132.459-.049.918-.063,1.371-.118.682-.077,1.357-.16,2.039-.264a29.108,29.108,0,0,0,4.147-.953,25.018,25.018,0,0,0,4.515-1.92,8.654,8.654,0,0,0,2.818-2.317,2.9,2.9,0,0,0,.689-1.545c.021-.23.042-.466.07-.7a7.864,7.864,0,0,1,.111-1.078,5.818,5.818,0,0,0,.125-1.343c.021-.675-.021-1.357.035-2.032.028-.341,0-.675.007-1.016.021-.71.042-1.419.056-2.129.014-.668,0-1.336.035-2,.035-.612,0-1.225.049-1.837.049-.71.021-1.419.049-2.129.028-.758.028-1.517.042-2.275.021-.946.056-1.885.07-2.832.007-.612.021-1.224.035-1.837.021-1.051.049-2.094.07-3.145.007-.341-.014-.682.014-1.016.042-.459.042-.918.042-1.384a1.7,1.7,0,0,0,.007-.188C134.459,247.838,134.417,247.428,134.4,247.017Zm-42.927-1.51c-.028-.035-.063-.063-.09-.1a.38.38,0,0,1-.07-.4c.1.111.174.216.243.306C91.524,245.375,91.5,245.445,91.469,245.507Z" transform="translate(586.912 2197.976)" fill="#fee5d8"/>
      <path id="Yakult-6" data-name="Yakult" d="M134.4,247.017a9.341,9.341,0,0,1,.118-1.878c-.021-.146-.042-.292-.07-.431a2.652,2.652,0,0,0,.083-.355c.028-.237.014-.466.049-.7a3.728,3.728,0,0,0-.23-1.83,1.138,1.138,0,0,0-.209-.355c-.25-.313-.515-.619-.793-.911-.209-.223-.438-.431-.647-.654a9.667,9.667,0,0,1-1.169-1.593,4.275,4.275,0,0,1-.584-1.371c-.174-.863-.341-1.725-.459-2.6a6.716,6.716,0,0,1-.077-1.183,14.009,14.009,0,0,1,.327-2.275,5.838,5.838,0,0,1,1.224-2.519c.55-.654,1.134-1.28,1.746-1.879a4.159,4.159,0,0,0,.577-.682,3.884,3.884,0,0,0,.738-2.115c.014-.8.014-1.593.049-2.393.049-1.065-.028-2.129.049-3.193.042-.571.021-1.141.049-1.719.035-.821.021-1.649,0-2.47a2.413,2.413,0,0,0-1.218-2.24c-.313-.195-.64-.383-.967-.557a.628.628,0,0,1-.327-.39q-1.231-3.747-2.519-7.479c-.424-1.245-.856-2.484-1.287-3.729a1.566,1.566,0,0,1-.1-.57.676.676,0,0,0-.035-.264.141.141,0,0,1,.1-.209,1.88,1.88,0,0,0,.466-.292.384.384,0,0,0,.16-.459,4.238,4.238,0,0,1-.174-1.141.785.785,0,0,0-.07-.306,10.334,10.334,0,0,1-.369-1.28,7.623,7.623,0,0,1-.271-2.345,1.632,1.632,0,0,0-.028-.41c-.083-.459-.153-.925-.244-1.385a12.152,12.152,0,0,0-.271-1.329,1.91,1.91,0,0,0-1.329-1.357c-.751-.216-1.517-.376-2.289-.522-.744-.139-1.489-.271-2.247-.355-.494-.056-.995-.1-1.489-.146q-1.1-.094-2.192-.146c-.417-.021-.842-.021-1.259-.049-.821-.063-1.642-.049-2.463-.077-.737-.028-1.482-.007-2.226.021-1.176.042-2.352.049-3.527.1-.522.028-1.044.014-1.572.049-.675.042-1.35.1-2.025.167-.786.077-1.572.174-2.352.278a20.257,20.257,0,0,0-2.407.424,7.085,7.085,0,0,0-1.572.612.937.937,0,0,0-.515.626c-.1.39-.23.772-.334,1.162a9.159,9.159,0,0,0-.271,1.127c-.083.605-.111,1.218-.139,1.83a10.423,10.423,0,0,1-.111,1.4,1.973,1.973,0,0,1-.327,1.058.094.094,0,0,0-.014.063c.063.035.07-.1.153-.028a1.786,1.786,0,0,1-.16.494c-.146.334-.3.661-.445.995-.077.167-.1.327.083.445a.136.136,0,0,1,.049.188c-.028.07-.063.139-.007.209a1.173,1.173,0,0,0,.515.424c.383.111.39.1.264.48-.007.028-.021.063-.028.09-.445,1.273-.891,2.539-1.336,3.813-.209.6-.424,1.2-.64,1.8q-.741,2.066-1.482,4.119c-.181.5-.369,1-.55,1.5a.473.473,0,0,1-.327.32,2.642,2.642,0,0,0-.577.25,3.716,3.716,0,0,0-1.6,1.851.487.487,0,0,0-.063.257,6.053,6.053,0,0,1-.021.87c.014,2.331-.035,4.661.035,6.992.035,1.106.007,2.212.056,3.312a.734.734,0,0,0,.021.216,3.093,3.093,0,0,0,1.294,1.774c.118.07.23.153.341.23a.851.851,0,0,1,.237.237c.237.327.48.647.71.981a5.809,5.809,0,0,1,.772,1.336c.264.724.48,1.454.675,2.2a5.921,5.921,0,0,1,.2,1.677c-.014.536-.042,1.064-.1,1.593a11.438,11.438,0,0,1-.355,2,4.635,4.635,0,0,1-.772,1.684,15.931,15.931,0,0,1-1.955,2.038,2.918,2.918,0,0,0-1.092,2.254v1.649a.405.405,0,0,1-.035.257.2.2,0,0,0-.035.09c0,.223,0,.452-.014.668v.07c-.007.4,0,.807,0,1.2a12.066,12.066,0,0,1,.139,1.336,9.655,9.655,0,0,1-.2,2.379c.028.1.035.2.063.306v1.148c.007.682.028,1.371.014,2.052-.007.494-.007.981-.007,1.475,0,.174.014.355.021.529.007.216-.021.424-.028.64-.021.584.014,1.169,0,1.76-.014.5-.007,1,0,1.5.007.57.007,1.148.007,1.718,0,1.051-.014,2.094,0,3.145a2.416,2.416,0,0,1,.028.383c-.042.285-.021.577-.035.863-.021.494,0,.981-.007,1.475s.035.981.014,1.468c-.021.459,0,.918,0,1.378.007.877-.007,1.753-.014,2.63a.938.938,0,0,0,.014.243,2.976,2.976,0,0,1,.077.96,2.074,2.074,0,0,0,.118.737,8.574,8.574,0,0,0,.731,1.607,6.225,6.225,0,0,0,1.823,2.011,21.875,21.875,0,0,0,3.214,1.83,24.082,24.082,0,0,0,4.717,1.572,37.918,37.918,0,0,0,5.663.821c.946.07,1.9.125,2.846.146,1.858.035,3.708.021,5.566-.042a.236.236,0,0,0,.07-.007c.7-.063,1.4-.063,2.1-.132.459-.049.918-.063,1.371-.118.682-.077,1.357-.16,2.039-.264a29.108,29.108,0,0,0,4.147-.953,25.018,25.018,0,0,0,4.515-1.92,8.654,8.654,0,0,0,2.818-2.317,2.9,2.9,0,0,0,.689-1.545c.021-.23.042-.466.07-.7a7.864,7.864,0,0,1,.111-1.078,5.818,5.818,0,0,0,.125-1.343c.021-.675-.021-1.357.035-2.032.028-.341,0-.675.007-1.016.021-.71.042-1.419.056-2.129.014-.668,0-1.336.035-2,.035-.612,0-1.225.049-1.837.049-.71.021-1.419.049-2.129.028-.758.028-1.517.042-2.275.021-.946.056-1.885.07-2.832.007-.612.021-1.224.035-1.837.021-1.051.049-2.094.07-3.145.007-.341-.014-.682.014-1.016.042-.459.042-.918.042-1.384a1.7,1.7,0,0,0,.007-.188C134.459,247.838,134.417,247.428,134.4,247.017Zm-42.927-1.51c-.028-.035-.063-.063-.09-.1a.38.38,0,0,1-.07-.4c.1.111.174.216.243.306C91.524,245.375,91.5,245.445,91.469,245.507Z" transform="translate(91.269 2197.976)" fill="#fee5d8"/>
      <path id="Yakult-7" data-name="Yakult" d="M134.4,247.017a9.341,9.341,0,0,1,.118-1.878c-.021-.146-.042-.292-.07-.431a2.652,2.652,0,0,0,.083-.355c.028-.237.014-.466.049-.7a3.728,3.728,0,0,0-.23-1.83,1.138,1.138,0,0,0-.209-.355c-.25-.313-.515-.619-.793-.911-.209-.223-.438-.431-.647-.654a9.667,9.667,0,0,1-1.169-1.593,4.275,4.275,0,0,1-.584-1.371c-.174-.863-.341-1.725-.459-2.6a6.716,6.716,0,0,1-.077-1.183,14.009,14.009,0,0,1,.327-2.275,5.838,5.838,0,0,1,1.224-2.519c.55-.654,1.134-1.28,1.746-1.879a4.159,4.159,0,0,0,.577-.682,3.884,3.884,0,0,0,.738-2.115c.014-.8.014-1.593.049-2.393.049-1.065-.028-2.129.049-3.193.042-.571.021-1.141.049-1.719.035-.821.021-1.649,0-2.47a2.413,2.413,0,0,0-1.218-2.24c-.313-.195-.64-.383-.967-.557a.628.628,0,0,1-.327-.39q-1.231-3.747-2.519-7.479c-.424-1.245-.856-2.484-1.287-3.729a1.566,1.566,0,0,1-.1-.57.676.676,0,0,0-.035-.264.141.141,0,0,1,.1-.209,1.88,1.88,0,0,0,.466-.292.384.384,0,0,0,.16-.459,4.238,4.238,0,0,1-.174-1.141.785.785,0,0,0-.07-.306,10.334,10.334,0,0,1-.369-1.28,7.623,7.623,0,0,1-.271-2.345,1.632,1.632,0,0,0-.028-.41c-.083-.459-.153-.925-.244-1.385a12.152,12.152,0,0,0-.271-1.329,1.91,1.91,0,0,0-1.329-1.357c-.751-.216-1.517-.376-2.289-.522-.744-.139-1.489-.271-2.247-.355-.494-.056-.995-.1-1.489-.146q-1.1-.094-2.192-.146c-.417-.021-.842-.021-1.259-.049-.821-.063-1.642-.049-2.463-.077-.737-.028-1.482-.007-2.226.021-1.176.042-2.352.049-3.527.1-.522.028-1.044.014-1.572.049-.675.042-1.35.1-2.025.167-.786.077-1.572.174-2.352.278a20.257,20.257,0,0,0-2.407.424,7.085,7.085,0,0,0-1.572.612.937.937,0,0,0-.515.626c-.1.39-.23.772-.334,1.162a9.159,9.159,0,0,0-.271,1.127c-.083.605-.111,1.218-.139,1.83a10.423,10.423,0,0,1-.111,1.4,1.973,1.973,0,0,1-.327,1.058.094.094,0,0,0-.014.063c.063.035.07-.1.153-.028a1.786,1.786,0,0,1-.16.494c-.146.334-.3.661-.445.995-.077.167-.1.327.083.445a.136.136,0,0,1,.049.188c-.028.07-.063.139-.007.209a1.173,1.173,0,0,0,.515.424c.383.111.39.1.264.48-.007.028-.021.063-.028.09-.445,1.273-.891,2.539-1.336,3.813-.209.6-.424,1.2-.64,1.8q-.741,2.066-1.482,4.119c-.181.5-.369,1-.55,1.5a.473.473,0,0,1-.327.32,2.642,2.642,0,0,0-.577.25,3.716,3.716,0,0,0-1.6,1.851.487.487,0,0,0-.063.257,6.053,6.053,0,0,1-.021.87c.014,2.331-.035,4.661.035,6.992.035,1.106.007,2.212.056,3.312a.734.734,0,0,0,.021.216,3.093,3.093,0,0,0,1.294,1.774c.118.07.23.153.341.23a.851.851,0,0,1,.237.237c.237.327.48.647.71.981a5.809,5.809,0,0,1,.772,1.336c.264.724.48,1.454.675,2.2a5.921,5.921,0,0,1,.2,1.677c-.014.536-.042,1.064-.1,1.593a11.438,11.438,0,0,1-.355,2,4.635,4.635,0,0,1-.772,1.684,15.931,15.931,0,0,1-1.955,2.038,2.918,2.918,0,0,0-1.092,2.254v1.649a.405.405,0,0,1-.035.257.2.2,0,0,0-.035.09c0,.223,0,.452-.014.668v.07c-.007.4,0,.807,0,1.2a12.066,12.066,0,0,1,.139,1.336,9.655,9.655,0,0,1-.2,2.379c.028.1.035.2.063.306v1.148c.007.682.028,1.371.014,2.052-.007.494-.007.981-.007,1.475,0,.174.014.355.021.529.007.216-.021.424-.028.64-.021.584.014,1.169,0,1.76-.014.5-.007,1,0,1.5.007.57.007,1.148.007,1.718,0,1.051-.014,2.094,0,3.145a2.416,2.416,0,0,1,.028.383c-.042.285-.021.577-.035.863-.021.494,0,.981-.007,1.475s.035.981.014,1.468c-.021.459,0,.918,0,1.378.007.877-.007,1.753-.014,2.63a.938.938,0,0,0,.014.243,2.976,2.976,0,0,1,.077.96,2.074,2.074,0,0,0,.118.737,8.574,8.574,0,0,0,.731,1.607,6.225,6.225,0,0,0,1.823,2.011,21.875,21.875,0,0,0,3.214,1.83,24.082,24.082,0,0,0,4.717,1.572,37.918,37.918,0,0,0,5.663.821c.946.07,1.9.125,2.846.146,1.858.035,3.708.021,5.566-.042a.236.236,0,0,0,.07-.007c.7-.063,1.4-.063,2.1-.132.459-.049.918-.063,1.371-.118.682-.077,1.357-.16,2.039-.264a29.108,29.108,0,0,0,4.147-.953,25.018,25.018,0,0,0,4.515-1.92,8.654,8.654,0,0,0,2.818-2.317,2.9,2.9,0,0,0,.689-1.545c.021-.23.042-.466.07-.7a7.864,7.864,0,0,1,.111-1.078,5.818,5.818,0,0,0,.125-1.343c.021-.675-.021-1.357.035-2.032.028-.341,0-.675.007-1.016.021-.71.042-1.419.056-2.129.014-.668,0-1.336.035-2,.035-.612,0-1.225.049-1.837.049-.71.021-1.419.049-2.129.028-.758.028-1.517.042-2.275.021-.946.056-1.885.07-2.832.007-.612.021-1.224.035-1.837.021-1.051.049-2.094.07-3.145.007-.341-.014-.682.014-1.016.042-.459.042-.918.042-1.384a1.7,1.7,0,0,0,.007-.188C134.459,247.838,134.417,247.428,134.4,247.017Zm-42.927-1.51c-.028-.035-.063-.063-.09-.1a.38.38,0,0,1-.07-.4c.1.111.174.216.243.306C91.524,245.375,91.5,245.445,91.469,245.507Z" transform="translate(646.001 2197.976)" fill="#fee5d8"/>
      <text id="SEJA" transform="translate(422.691 2478.181)" fill="#fee5d8" font-size="130" font-family="Gotham" font-weight="800"><tspan x="-172" y="0">SEJA</tspan></text>
      <text id="YAKULT-8" data-name="YAKULT" transform="translate(400.691 2699.181)" fill="#fee5d8" font-size="130" font-family="Gotham" font-weight="800" letter-spacing="-0.1em"><tspan x="-252" y="0">Y</tspan><tspan y="0" letter-spacing="-0.015em">AKULT</tspan></text>
      <text id="COMERCIANTE" transform="translate(423.191 2574.681)" fill="none" stroke="#f8e5da" stroke-width="3.109" font-size="90" font-family="Gotham" font-weight="800" letter-spacing="0.02em"><tspan x="-358" y="0">COMERCIANTE</tspan></text>
      <path id="house" d="M21,111.8,76.343,64,95.838,81.925V73.958h11.95V91.883l23.9,19.916h-11.95v47.8H103.079V119.766H79.18V159.6H32.95V111.8Z" transform="translate(662.758 2540.915)" fill="#fee5d8"/>
    </g>
  </g>
</svg>
