<svg xmlns="http://www.w3.org/2000/svg" width="190" height="30.021" viewBox="0 0 190 30.021">
  <path id="Yakult_Logo" data-name="Yakult Logo" d="M91.365,27.7l-7.276-8.359V27.7H73.322V0H84.089V16.089l6.6-8.386h12.971L95.472,18.109l10.4,9.588ZM152.026,0H141.26V27.7h10.766Zm26.214,19.4v1.423a2.695,2.695,0,0,1-5.355,0V14.48h6.536V7.695h-6.536V0H162.4V7.695h-6.793V14.48H162.4V19.4c0,5.474,4.131,10.618,12.6,10.618s15-5.144,15-10.618ZM127.077,7.695V18.058c0,1.883-2.566,4.194-5.73,4.194s-5.731-2.786-5.731-4.669V7.695H105.479V20.786c0,5.07,5.34,9.18,11.926,9.18a13.275,13.275,0,0,0,9.67-3.821v1.588H137.56V7.695ZM69.018,15.288V27.7H58.259v-.806a16.072,16.072,0,0,1-9.48,3.015c-5.634,0-12.593-2.209-12.593-7.623,0-4.249,4.475-7.7,12.225-7.7,4.733,0,7.826.3,9.844.915-.043-1.73-.969-2.331-3.975-2.677-2.874-.331-4.015.445-4.622,1.231l-12.609-.115c.043-3.14,2.759-7.118,15.983-7.118C66.363,6.824,69.018,12.137,69.018,15.288ZM58.259,21.714v-.081c-.071-.921-2.494-1.66-5.479-1.66-3.03,0-5.486.762-5.486,1.7s2.455,1.7,5.486,1.7C55.765,23.374,58.188,22.635,58.259,21.714ZM44.389,0H28.275L22.1,8.519,16.113,0H0L16.156,18.871V27.7H27.808v-8.83Z" fill="#ff153d"/>
</svg>
