<svg xmlns="http://www.w3.org/2000/svg" width="54.502" height="111.113" viewBox="0 0 54.502 111.113">
  <g id="Yakult" transform="translate(-1617.25 -1666.688)">
    <path id="Yakult-2" data-name="Yakult" d="M239.782,595.438a4.329,4.329,0,0,0-.253-2.081,1.293,1.293,0,0,0-.237-.4c-.285-.356-.585-.7-.9-1.036-.237-.253-.5-.49-.736-.744a10.987,10.987,0,0,1-1.329-1.812,4.859,4.859,0,0,1-.664-1.558c-.2-.981-.388-1.962-.522-2.951a7.632,7.632,0,0,1-.087-1.345,15.926,15.926,0,0,1,.372-2.587,6.64,6.64,0,0,1,1.392-2.864c.625-.744,1.289-1.456,1.986-2.136a4.735,4.735,0,0,0,.657-.775c.49-.728,1.028-12.586,1-13.52a2.743,2.743,0,0,0-1.384-2.547c-.356-.222-.728-.435-1.1-.633a.714.714,0,0,1-.372-.443c-.933-2.84-3.837-11.328-4.327-12.744a1.781,1.781,0,0,1-.119-.649.77.77,0,0,0-.04-.3.161.161,0,0,1,.111-.237,2.145,2.145,0,0,0,.53-.332.437.437,0,0,0,.182-.522c-.111-.427-1.464-8.828-1.622-9.319a2.172,2.172,0,0,0-1.511-1.542c-.854-.245-1.725-.427-2.6-.593-.846-.158-1.693-.308-2.555-.4-.562-.063-1.131-.119-1.693-.166q-1.246-.107-2.492-.166c-.475-.024-.957-.024-1.432-.055-.933-.071-1.867-.055-2.8-.087-.839-.032-1.685-.008-2.531.024-1.337.047-2.674.055-4.011.119-.593.031-1.187.016-1.788.055-.767.047-1.535.119-2.3.19-.894.087-1.788.2-2.674.316a23.056,23.056,0,0,0-2.737.482,8.066,8.066,0,0,0-1.788.7,1.066,1.066,0,0,0-.585.712c-.119.443-1.709,8.828-1.875,9.208-.087.19-.111.372.095.506a.155.155,0,0,1,.055.214c-.032.079-.071.158-.008.237a1.333,1.333,0,0,0,.585.483c.435.127.443.119.3.546-.008.032-.024.071-.032.1-.506,1.448-3.37,9.509-3.932,11.067-.206.57-.419,1.139-.625,1.709a.538.538,0,0,1-.372.364,3.005,3.005,0,0,0-.657.285,4.224,4.224,0,0,0-1.819,2.1.554.554,0,0,0-.071.293c.055.332.024,11.455.079,12.7a.834.834,0,0,0,.024.245,3.517,3.517,0,0,0,1.471,2.017c.134.079.261.174.388.261a.967.967,0,0,1,.269.269c.269.372.546.736.807,1.115a6.609,6.609,0,0,1,.878,1.519c.3.823.546,1.654.767,2.5a6.734,6.734,0,0,1,.229,1.906c-.016.609-.047,1.21-.111,1.812a13.007,13.007,0,0,1-.4,2.27,5.27,5.27,0,0,1-.878,1.914,18.109,18.109,0,0,1-2.223,2.318,3.318,3.318,0,0,0-1.242,2.563c0,.625.04,34.092.134,34.369a9.748,9.748,0,0,0,.831,1.827,7.078,7.078,0,0,0,2.073,2.286,24.883,24.883,0,0,0,3.655,2.081,27.378,27.378,0,0,0,5.364,1.788,43.122,43.122,0,0,0,6.439.933c1.076.079,2.16.142,3.235.166,2.112.039,4.216.024,6.329-.047a.271.271,0,0,0,.079-.008c.791-.071,1.59-.071,2.389-.15.522-.055,1.044-.071,1.558-.134.775-.087,1.543-.182,2.318-.3a33.108,33.108,0,0,0,4.715-1.084,28.443,28.443,0,0,0,5.134-2.183,9.839,9.839,0,0,0,3.2-2.634,3.3,3.3,0,0,0,.783-1.756C238.786,628.905,239.743,595.7,239.782,595.438Z" transform="translate(1429.037 1138.066)" fill="none" stroke="#ff2046" stroke-linecap="round" stroke-linejoin="round" stroke-width="4.5"/>
  </g>
</svg>
